<svg xmlns="http://www.w3.org/2000/svg" width="1400" height="920" viewBox="0 0 1400 920">
<style>
.t{font-family:"Microsoft JhengHei","Noto Sans CJK TC",sans-serif;fill:#0f172a}.m{fill:#64748b}.b{font-weight:700}.c{fill:#fff;stroke:#e2e8f0}.n{fill:#ef4444}.s{fill:#475569}.p{fill:#10b981}.i{fill:#6366f1}.bg{fill:#f8fafc}.tag{fill:#f1f5f9}.hot{fill:#fee2e2}.blue{fill:#e0f2fe}.sm{font-size:11px}.md{font-size:13px}.lg{font-size:20px}
</style>
<rect width="1400" height="920" class="bg"/>
<text x="700" y="48" text-anchor="middle" class="t b" font-size="30">🤖 AI 電腦型彩券預測儀表板</text>
<text x="700" y="75" text-anchor="middle" class="t m md">數據更新排程：每日自動運行 • 最後更新: 2026-09-04 01:08:03</text>
<rect x="60" y="100" width="1280" height="120" rx="18" fill="#eaf3ff" stroke="#bfdbfe"/>
<text x="85" y="138" class="t b lg" fill="#2563eb">💡 AI 是如何學習開獎規律的？</text>
<text x="85" y="166" class="t md">Random Forest 將歷史開獎資料轉換為近期出現、遺漏與頻率特徵，</text>
<text x="85" y="189" class="t md">用於機器學習與機率研究，並顯示模型 Feature Importance。</text>
<g transform="translate(665 120)"><rect width="190" height="78" rx="10" class="c"/><text x="16" y="28" class="t b lg" fill="#2563eb">1</text><text x="16" y="52" class="t b md">歷史特徵化</text><text x="16" y="69" class="t m sm">近期開出軌跡</text></g>
<g transform="translate(870 120)"><rect width="190" height="78" rx="10" class="c"/><text x="16" y="28" class="t b lg" fill="#2563eb">2</text><text x="16" y="52" class="t b md">森林擬合</text><text x="16" y="69" class="t m sm">100 棵決策樹</text></g>
<g transform="translate(1075 120)"><rect width="190" height="78" rx="10" class="c"/><text x="16" y="28" class="t b lg" fill="#2563eb">3</text><text x="16" y="52" class="t b md">權重歸納</text><text x="16" y="69" class="t m sm">特徵重要性</text></g>
<!-- 大樂透 -->
<g transform="translate(60 250)"><rect width="410" height="365" rx="18" class="c"/><text x="22" y="38" class="t b lg">大樂透</text><rect x="190" y="17" width="130" height="24" rx="5" class="tag"/><text x="255" y="33" text-anchor="middle" class="t m sm">2026/09/04(五)</text><rect x="330" y="17" width="58" height="24" rx="5" class="blue"/><text x="359" y="33" text-anchor="middle" class="t sm" fill="#0369a1">ML 決策樹</text>
<line x1="22" y1="55" x2="388" y2="55" stroke="#e2e8f0"/><g transform="translate(22 76)">
<circle cx="17" cy="17" r="17" class="n"/><text x="17" y="21" text-anchor="middle" class="t b md" fill="#fff">35</text><text x="58" y="21" class="t m sm">漏 0 期</text><text x="365" y="15" text-anchor="end" class="t m sm">18.9%</text><rect x="255" y="24" width="110" height="6" rx="3" fill="#e2e8f0"/><rect x="255" y="24" width="21" height="6" rx="3" class="p"/>
<circle cx="17" cy="64" r="17" class="n"/><text x="17" y="68" text-anchor="middle" class="t b md" fill="#fff">47</text><rect x="52" y="52" width="38" height="22" rx="5" class="hot"/><text x="71" y="67" text-anchor="middle" class="t sm" fill="#ef4444">🔥熱</text><text x="98" y="67" class="t m sm">漏 3 期</text><text x="365" y="62" text-anchor="end" class="t m sm">15.7%</text><rect x="255" y="71" width="110" height="6" rx="3" fill="#e2e8f0"/><rect x="255" y="71" width="17" height="6" rx="3" class="p"/>
<circle cx="17" cy="111" r="17" class="n"/><text x="17" y="115" text-anchor="middle" class="t b md" fill="#fff">12</text><rect x="52" y="99" width="38" height="22" rx="5" class="hot"/><text x="71" y="114" text-anchor="middle" class="t sm" fill="#ef4444">🔥熱</text><text x="98" y="114" class="t m sm">漏 1 期</text><text x="365" y="109" text-anchor="end" class="t m sm">15.6%</text><rect x="255" y="118" width="110" height="6" rx="3" fill="#e2e8f0"/><rect x="255" y="118" width="17" height="6" rx="3" class="p"/>
<text x="0" y="162" class="t m sm">其餘：17、21、26</text><rect x="0" y="180" width="366" height="45" rx="9" class="tag"/><text x="12" y="207" class="t m sm">AI 推薦特別號</text><circle cx="340" cy="202" r="16" fill="#eab308"/><text x="340" y="207" text-anchor="middle" class="t b sm">05</text>
<text x="0" y="253" class="t b sm">📊 Feature Importance</text><text x="0" y="278" class="t m sm">近5期開出總次</text><rect x="115" y="271" width="180" height="7" rx="3" fill="#e2e8f0"/><rect x="115" y="271" width="60" height="7" rx="3" class="i"/><text x="365" y="278" text-anchor="end" class="t sm" fill="#6366f1">33.1%</text></g></g>
<!-- 威力彩 -->
<g transform="translate(495 250)"><rect width="410" height="365" rx="18" class="c"/><text x="22" y="38" class="t b lg">威力彩</text><rect x="190" y="17" width="130" height="24" rx="5" class="tag"/><text x="255" y="33" text-anchor="middle" class="t m sm">2026/09/07(一)</text><rect x="330" y="17" width="58" height="24" rx="5" class="blue"/><text x="359" y="33" text-anchor="middle" class="t sm" fill="#0369a1">ML 決策樹</text><line x1="22" y1="55" x2="388" y2="55" stroke="#e2e8f0"/>
<g transform="translate(22 76)"><circle cx="17" cy="17" r="17" class="n"/><text x="17" y="21" text-anchor="middle" class="t b md" fill="#fff">18</text><rect x="52" y="5" width="38" height="22" rx="5" class="hot"/><text x="71" y="20" text-anchor="middle" class="t sm" fill="#ef4444">🔥熱</text><text x="98" y="20" class="t m sm">漏 1 期</text><text x="365" y="15" text-anchor="end" class="t m sm">21.6%</text><rect x="255" y="24" width="110" height="6" rx="3" fill="#e2e8f0"/><rect x="255" y="24" width="24" height="6" rx="3" class="p"/>
<circle cx="17" cy="64" r="17" class="n"/><text x="17" y="68" text-anchor="middle" class="t b md" fill="#fff">04</text><rect x="52" y="52" width="38" height="22" rx="5" class="hot"/><text x="71" y="67" text-anchor="middle" class="t sm" fill="#ef4444">🔥熱</text><text x="98" y="67" class="t m sm">漏 2 期</text><text x="365" y="62" text-anchor="end" class="t m sm">20.0%</text><rect x="255" y="71" width="110" height="6" rx="3" fill="#e2e8f0"/><rect x="255" y="71" width="22" height="6" rx="3" class="p"/>
<circle cx="17" cy="111" r="17" class="n"/><text x="17" y="115" text-anchor="middle" class="t b md" fill="#fff">31</text><rect x="52" y="99" width="38" height="22" rx="5" class="hot"/><text x="71" y="114" text-anchor="middle" class="t sm" fill="#ef4444">🔥熱</text><text x="98" y="114" class="t m sm">漏 2 期</text><text x="365" y="109" text-anchor="end" class="t m sm">18.6%</text><rect x="255" y="118" width="110" height="6" rx="3" fill="#e2e8f0"/><rect x="255" y="118" width="20" height="6" rx="3" class="p"/>
<text x="0" y="162" class="t m sm">其餘：17、19、05</text><rect x="0" y="180" width="366" height="45" rx="9" class="tag"/><text x="12" y="207" class="t m sm">AI 推薦第二區號碼</text><circle cx="340" cy="202" r="16" fill="#10b981"/><text x="340" y="207" text-anchor="middle" class="t b sm" fill="#fff">02</text><text x="0" y="253" class="t b sm">📊 Feature Importance</text><text x="0" y="278" class="t m sm">近5期開出總次</text><rect x="115" y="271" width="180" height="7" rx="3" fill="#e2e8f0"/><rect x="115" y="271" width="47" height="7" rx="3" class="i"/><text x="365" y="278" text-anchor="end" class="t sm" fill="#6366f1">26.0%</text></g></g>
<!-- 539 -->
<g transform="translate(930 250)"><rect width="410" height="365" rx="18" class="c"/><text x="22" y="38" class="t b lg">今彩539</text><rect x="190" y="17" width="130" height="24" rx="5" class="tag"/><text x="255" y="33" text-anchor="middle" class="t m sm">2026/09/04(五)</text><rect x="330" y="17" width="58" height="24" rx="5" class="blue"/><text x="359" y="33" text-anchor="middle" class="t sm" fill="#0369a1">ML 決策樹</text><line x1="22" y1="55" x2="388" y2="55" stroke="#e2e8f0"/>
<g transform="translate(22 76)"><circle cx="17" cy="17" r="17" class="n"/><text x="17" y="21" text-anchor="middle" class="t b md" fill="#fff">32</text><rect x="52" y="5" width="38" height="22" rx="5" class="hot"/><text x="71" y="20" text-anchor="middle" class="t sm" fill="#ef4444">🔥熱</text><text x="98" y="20" class="t m sm">漏 0 期</text><text x="365" y="15" text-anchor="end" class="t m sm">51.0%</text><rect x="255" y="24" width="110" height="6" rx="3" fill="#e2e8f0"/><rect x="255" y="24" width="56" height="6" rx="3" class="p"/>
<circle cx="17" cy="64" r="17" class="n"/><text x="17" y="68" text-anchor="middle" class="t b md" fill="#fff">37</text><rect x="52" y="52" width="38" height="22" rx="5" class="hot"/><text x="71" y="67" text-anchor="middle" class="t sm" fill="#ef4444">🔥熱</text><text x="98" y="67" class="t m sm">漏 0 期</text><text x="365" y="62" text-anchor="end" class="t m sm">36.6%</text><rect x="255" y="71" width="110" height="6" rx="3" fill="#e2e8f0"/><rect x="255" y="71" width="40" height="6" rx="3" class="p"/>
<circle cx="17" cy="111" r="17" class="n"/><text x="17" y="115" text-anchor="middle" class="t b md" fill="#fff">01</text><rect x="52" y="99" width="38" height="22" rx="5" class="blue"/><text x="71" y="114" text-anchor="middle" class="t sm" fill="#0284c7">❄冷</text><text x="98" y="114" class="t m sm">漏 2 期</text><text x="365" y="109" text-anchor="end" class="t m sm">14.1%</text><rect x="255" y="118" width="110" height="6" rx="3" fill="#e2e8f0"/><rect x="255" y="118" width="16" height="6" rx="3" class="p"/><text x="0" y="162" class="t m sm">其餘：02、28</text><text x="0" y="205" class="t b sm">📊 Feature Importance</text><text x="0" y="230" class="t m sm">近5期開出總次</text><rect x="115" y="223" width="180" height="7" rx="3" fill="#e2e8f0"/><rect x="115" y="223" width="61" height="7" rx="3" class="i"/><text x="365" y="230" text-anchor="end" class="t sm" fill="#6366f1">33.7%</text></g></g>
<!-- 星彩 -->
<g transform="translate(60 645)"><rect width="410" height="210" rx="18" class="c"/><text x="22" y="38" class="t b lg">3星彩</text><rect x="330" y="17" width="58" height="24" rx="5" class="blue"/><text x="359" y="33" text-anchor="middle" class="t sm" fill="#0369a1">模擬展示</text><g transform="translate(22 75)"><rect width="42" height="42" rx="8" class="s"/><text x="21" y="27" text-anchor="middle" class="t b lg" fill="#fff">1</text><rect x="62" width="42" height="42" rx="8" class="s"/><text x="83" y="27" text-anchor="middle" class="t b lg" fill="#fff">4</text><rect x="124" width="42" height="42" rx="8" class="s"/><text x="145" y="27" text-anchor="middle" class="t b lg" fill="#fff">4</text><text x="0" y="78" class="t m sm">目前由隨機模擬資料產生，非真實歷史 ML 預測。</text></g></g>
<g transform="translate(495 645)"><rect width="410" height="210" rx="18" class="c"/><text x="22" y="38" class="t b lg">4星彩</text><rect x="330" y="17" width="58" height="24" rx="5" class="blue"/><text x="359" y="33" text-anchor="middle" class="t sm" fill="#0369a1">模擬展示</text><g transform="translate(22 75)"><rect width="42" height="42" rx="8" class="s"/><text x="21" y="27" text-anchor="middle" class="t b lg" fill="#fff">2</text><rect x="62" width="42" height="42" rx="8" class="s"/><text x="83" y="27" text-anchor="middle" class="t b lg" fill="#fff">1</text><rect x="124" width="42" height="42" rx="8" class="s"/><text x="145" y="27" text-anchor="middle" class="t b lg" fill="#fff">8</text><rect x="186" width="42" height="42" rx="8" class="s"/><text x="207" y="27" text-anchor="middle" class="t b lg" fill="#fff">9</text><text x="0" y="78" class="t m sm">目前由隨機模擬資料產生，非真實歷史 ML 預測。</text></g></g>
<text x="700" y="890" text-anchor="middle" class="t m sm">Dashboard Preview — 資料依 repository 當前 data.json 製作；畫面百分比是模型輸出分數，不是實際中獎率。</text>
</svg>